<svg xmlns="http://www.w3.org/2000/svg" xmlns:xlink="http://www.w3.org/1999/xlink" version="1.1" x="0px" y="0px" viewBox="0 0 64 80" style="enable-background:new 0 0 64 64;" xml:space="preserve"><g><path d="M12,16c-0.551,0-1,0.449-1,1s0.449,1,1,1h1v-0.764L12.382,16H12z"/><path d="M18.605,33c-1.688,0-3.291-0.554-4.605-1.53v1.116c0,0.645,0.251,1.251,0.708,1.707C15.163,34.749,15.769,35,16.414,35   h8.172c0.645,0,1.251-0.251,1.707-0.707C26.749,33.837,27,33.23,27,32.586V31.47C25.686,32.446,24.082,33,22.395,33H18.605z"/><path d="M21.528,9h-2.056c-2.301,0-4.377,1.237-5.472,3.245v1.095c1.353-0.613,3.483-1.34,6-1.34c2.731,0,5.412,0.857,7,1.479   v-1.234C25.905,10.237,23.829,9,21.528,9z"/><path d="M24,19.523v11.239c1.103-0.321,2.09-0.967,2.828-1.87L26,27.236v-7.125C25.49,19.921,24.794,19.711,24,19.523z"/><path d="M17,30.763V19.401c-0.79,0.205-1.47,0.455-2,0.685v7.149l-0.828,1.656C14.91,29.796,15.897,30.441,17,30.763z"/><path d="M14.319,15.402L15,16.764v1.167C16.346,17.43,18.057,17,20,17c2.056,0,4.382,0.484,6,0.997v-1.233l0.637-1.274   C25.282,14.934,22.619,14,20,14C17.482,14,15.388,14.861,14.319,15.402z"/><path d="M53,40c0-0.552-0.449-1-1-1h-0.382L51,40.236V41h1C52.551,41,53,40.552,53,40z"/><path d="M19,19.048V31h3V19.148C21.33,19.057,20.65,19,20,19C19.658,19,19.325,19.019,19,19.048z"/><rect x="3" y="33" width="2" height="8"/><rect x="3" y="43" width="2" height="8"/><path d="M30,17c0-0.551-0.449-1-1-1h-0.382L28,17.236V18h1C29.551,18,30,17.551,30,17z"/><rect x="3" y="53" width="2" height="8"/><rect x="3" y="13" width="2" height="8"/><rect x="3" y="23" width="2" height="8"/><rect x="3" y="3" width="2" height="8"/><rect x="59" y="43" width="2" height="8"/><rect x="59" y="53" width="2" height="8"/><path d="M50,36.479v-1.234C48.905,33.237,46.829,32,44.528,32h-2.056c-2.301,0-4.377,1.237-5.472,3.245v1.095   c1.353-0.613,3.483-1.34,6-1.34C45.731,35,48.412,35.857,50,36.479z"/><rect x="59" y="33" width="2" height="8"/><path d="M33,9h-2V3H7v58h50V3H33V9z M29,28.764v3.822c0,1.179-0.459,2.287-1.292,3.121S25.766,37,24.586,37h-8.172   c-1.18,0-2.288-0.459-3.122-1.293S12,33.765,12,32.586v-3.822l1-2V20h-1c-1.654,0-3-1.346-3-3s1.346-3,3-3v-2.236l0.105-0.211   C13.509,8.745,16.332,7,19.472,7h2.056c3.14,0,5.963,1.745,7.367,4.553L29,11.764V14c1.654,0,3,1.346,3,3s-1.346,3-3,3h-1v6.764   L29,28.764z M33,23v8h-2v-8H33z M33,53h-2v-8h2V53z M35,34.764l0.105-0.211C36.509,31.745,39.332,30,42.472,30h2.056   c3.14,0,5.963,1.745,7.367,4.553L52,34.764V37c1.654,0,3,1.346,3,3s-1.346,3-3,3h-1v6.764l1,2v3.822   c0,1.179-0.459,2.287-1.292,3.121S48.766,60,47.586,60h-8.172c-1.18,0-2.288-0.459-3.122-1.293S35,56.765,35,55.586v-3.822l1-2V43   h-1c-1.654,0-3-1.346-3-3s1.346-3,3-3V34.764z"/><rect x="59" y="3" width="2" height="8"/><rect x="59" y="13" width="2" height="8"/><rect x="59" y="23" width="2" height="8"/><path d="M35,41h1v-0.764L35.382,39H35c-0.551,0-1,0.448-1,1S34.449,41,35,41z"/><path d="M38,50.236l-0.828,1.656c0.739,0.903,1.725,1.549,2.828,1.87V42.401c-0.79,0.205-1.47,0.455-2,0.685V50.236z"/><path d="M42,42.048V54h3V42.148C44.33,42.057,43.65,42,43,42C42.658,42,42.325,42.019,42,42.048z"/><path d="M39.414,58h8.172c0.645,0,1.251-0.251,1.707-0.707C49.749,56.837,50,56.23,50,55.586V54.47   C48.686,55.446,47.082,56,45.395,56h-3.789c-1.688,0-3.291-0.554-4.605-1.53v1.116c0,0.645,0.251,1.251,0.708,1.707   C38.163,57.749,38.769,58,39.414,58z"/><path d="M49,39.764l0.637-1.273C48.282,37.934,45.619,37,43,37c-2.518,0-4.612,0.861-5.681,1.402L38,39.764v1.167   C39.346,40.429,41.056,40,43,40c2.056,0,4.382,0.483,6,0.997V39.764z"/><path d="M49.828,51.893L49,50.236v-7.125c-0.51-0.19-1.206-0.4-2-0.588v11.239C48.103,53.441,49.089,52.796,49.828,51.893z"/></g></svg>
